<?xml version="1.0" encoding="utf-8"?>
<!-- Generator: Adobe Illustrator 25.0.1, SVG Export Plug-In . SVG Version: 6.00 Build 0)  -->
<svg version="1.1" id="Layer_1" xmlns="http://www.w3.org/2000/svg" xmlns:xlink="http://www.w3.org/1999/xlink" x="0px" y="0px"
	 viewBox="0 0 32 32" style="enable-background:new 0 0 32 32;" xml:space="preserve">
<style type="text/css">
	.st0{fill:#15539E;}
	.st1{fill:#FFFFFF;}
</style>
<g>
	<circle class="st0" cx="16" cy="16" r="16"/>
</g>
<g>
	<path class="st1" d="M14.39,26.46h-4.18V5.68c2.67-0.09,4.37-0.14,5.12-0.14c2.9,0,5.2,0.88,6.89,2.65s2.54,4.11,2.54,7.04
		C24.76,22.72,21.3,26.46,14.39,26.46z M13.05,8.23v15.53c0.63,0.09,1.42,0.14,2.35,0.14c1.99,0,3.55-0.74,4.68-2.23
		c1.13-1.49,1.7-3.56,1.7-6.2c0-4.92-2.21-7.37-6.62-7.37C14.89,8.09,14.19,8.14,13.05,8.23z"/>
</g>
</svg>
